<svg xmlns="http://www.w3.org/2000/svg" width="1500" height="980" viewBox="0 0 1500 980" font-family="Georgia, 'Times New Roman', serif">
<rect width="1500" height="980" fill="#F4F3EC"/>
<defs><marker id="arr" viewBox="0 0 10 10" refX="9" refY="5" markerWidth="7" markerHeight="7" orient="auto-start-reverse"><path d="M0 0L10 5L0 10z" fill="#6e6e73"/></marker><marker id="arrSky" viewBox="0 0 10 10" refX="9" refY="5" markerWidth="7" markerHeight="7" orient="auto-start-reverse"><path d="M0 0L10 5L0 10z" fill="#0071e3"/></marker></defs>
<text x="750.0" y="44" text-anchor="middle" font-size="30" font-weight="bold" font-style="normal" fill="#1d1d1f">Luts.store — User Navigation</text>
<text x="750.0" y="70" text-anchor="middle" font-size="14" font-weight="normal" font-style="italic" fill="#6e6e73">purchase funnel (blue) · supporting pages (grey/green) — routes from src/app</text>
<rect x="50" y="96" width="1400" height="56" rx="12" fill="#fff" stroke="#0071e3" stroke-width="1.5"/>
<text x="750.0" y="130.0" text-anchor="middle" font-size="18" font-weight="bold" fill="#1d1d1f"></text>
<text x="750.0" y="122" text-anchor="middle" font-size="13" font-weight="bold" font-style="normal" fill="#0071e3">PERSISTENT HEADER  (on every page)</text>
<text x="750.0" y="142" text-anchor="middle" font-size="14" font-weight="normal" font-style="normal" fill="#1d1d1f">Logo → Home    ·    Cinematic · Drone/DJI · Mobile/CapCut · Film · Bundles    ·    🔍 Search    ·    👤 Account    ·    🛒 Cart drawer</text>
<rect x="50" y="230" width="188" height="78" rx="14" fill="#E6F0FB" stroke="#0071e3" stroke-width="1.5"/>
<text x="144.0" y="263.0" text-anchor="middle" font-size="18" font-weight="bold" fill="#1d1d1f">Home</text>
<text x="144.0" y="284.0" text-anchor="middle" font-size="13" font-style="italic" fill="#6e6e73">/</text>
<rect x="290" y="230" width="188" height="78" rx="14" fill="#E6F0FB" stroke="#0071e3" stroke-width="1.5"/>
<text x="384.0" y="263.0" text-anchor="middle" font-size="18" font-weight="bold" fill="#1d1d1f">Collection</text>
<text x="384.0" y="284.0" text-anchor="middle" font-size="13" font-style="italic" fill="#6e6e73">/collections/[handle]</text>
<rect x="530" y="230" width="188" height="78" rx="14" fill="#E6F0FB" stroke="#0071e3" stroke-width="1.5"/>
<text x="624.0" y="263.0" text-anchor="middle" font-size="18" font-weight="bold" fill="#1d1d1f">Product</text>
<text x="624.0" y="284.0" text-anchor="middle" font-size="13" font-style="italic" fill="#6e6e73">/luts/[handle]</text>
<rect x="770" y="230" width="188" height="78" rx="14" fill="#E6F0FB" stroke="#0071e3" stroke-width="1.5"/>
<text x="864.0" y="263.0" text-anchor="middle" font-size="18" font-weight="bold" fill="#1d1d1f">Cart</text>
<text x="864.0" y="284.0" text-anchor="middle" font-size="13" font-style="italic" fill="#6e6e73">/cart</text>
<rect x="1010" y="230" width="188" height="78" rx="14" fill="#FBE9D6" stroke="#D8D8D0" stroke-width="1.5"/>
<text x="1104.0" y="263.0" text-anchor="middle" font-size="18" font-weight="bold" fill="#1d1d1f">Checkout</text>
<text x="1104.0" y="284.0" text-anchor="middle" font-size="13" font-style="italic" fill="#6e6e73">/checkout</text>
<rect x="1250" y="230" width="188" height="78" rx="14" fill="#E3F3EC" stroke="#D8D8D0" stroke-width="1.5"/>
<text x="1344.0" y="263.0" text-anchor="middle" font-size="18" font-weight="bold" fill="#1d1d1f">Thank-you</text>
<text x="1344.0" y="284.0" text-anchor="middle" font-size="13" font-style="italic" fill="#6e6e73">/thank-you</text>
<line x1="238" y1="269.0" x2="290" y2="269.0" stroke="#0071e3" stroke-width="2" marker-end="url(#arrSky)"/>
<line x1="478" y1="269.0" x2="530" y2="269.0" stroke="#0071e3" stroke-width="2" marker-end="url(#arrSky)"/>
<line x1="718" y1="269.0" x2="770" y2="269.0" stroke="#0071e3" stroke-width="2" marker-end="url(#arrSky)"/>
<line x1="958" y1="269.0" x2="1010" y2="269.0" stroke="#0071e3" stroke-width="2" marker-end="url(#arrSky)"/>
<line x1="1198" y1="269.0" x2="1250" y2="269.0" stroke="#0071e3" stroke-width="2" marker-end="url(#arrSky)"/>
<text x="624.0" y="216" text-anchor="middle" font-size="12" font-weight="normal" font-style="italic" fill="#6e6e73">browse</text>
<text x="804.0" y="216" text-anchor="middle" font-size="12" font-weight="normal" font-style="italic" fill="#6e6e73">Add to cart → drawer</text>
<text x="1104.0" y="330" text-anchor="middle" font-size="12" font-weight="normal" font-style="italic" fill="#b06a1f">demo — no real payment taken</text>
<text x="1014.0" y="216" text-anchor="middle" font-size="12" font-weight="normal" font-style="italic" fill="#6e6e73">guest checkout (email)</text>
<rect x="530" y="360" width="188" height="64" rx="14" fill="#ECECE6" stroke="#D8D8D0" stroke-width="1.5"/>
<text x="624.0" y="386.0" text-anchor="middle" font-size="18" font-weight="bold" fill="#1d1d1f">Search</text>
<text x="624.0" y="407.0" text-anchor="middle" font-size="13" font-style="italic" fill="#6e6e73">/search</text>
<line x1="624.0" y1="360" x2="624.0" y2="308" stroke="#6e6e73" stroke-width="2" marker-end="url(#arr)"/>
<text x="710.0" y="350" text-anchor="middle" font-size="11" font-weight="normal" font-style="italic" fill="#6e6e73">results → product</text>
<rect x="1180" y="360" width="270" height="92" rx="14" fill="#E3F3EC" stroke="#0a8754" stroke-width="1.5"/>
<text x="1315.0" y="412.0" text-anchor="middle" font-size="18" font-weight="bold" fill="#1d1d1f"></text>
<text x="1315" y="392" text-anchor="middle" font-size="16" font-weight="bold" font-style="normal" fill="#0a8754">⬇  Download delivery</text>
<text x="1315" y="414" text-anchor="middle" font-size="12.5" font-weight="normal" font-style="italic" fill="#1d1d1f">signed .cube / .zip link (expiring)</text>
<text x="1315" y="433" text-anchor="middle" font-size="12.5" font-weight="normal" font-style="italic" fill="#1d1d1f">+ confirmation email</text>
<line x1="1344.0" y1="308" x2="1315" y2="360" stroke="#6e6e73" stroke-width="2" marker-end="url(#arr)"/>
<rect x="1010" y="560" width="188" height="70" rx="14" fill="#E3F3EC" stroke="#0a8754" stroke-width="1.5"/>
<text x="1104.0" y="589.0" text-anchor="middle" font-size="18" font-weight="bold" fill="#1d1d1f">Account</text>
<text x="1104.0" y="610.0" text-anchor="middle" font-size="13" font-style="italic" fill="#6e6e73">/account</text>
<rect x="770" y="520" width="188" height="56" rx="14" fill="#fff" stroke="#D8D8D0" stroke-width="1.5"/>
<text x="864.0" y="542.0" text-anchor="middle" font-size="18" font-weight="bold" fill="#1d1d1f">Sign in</text>
<text x="864.0" y="563.0" text-anchor="middle" font-size="13" font-style="italic" fill="#6e6e73">/account/login</text>
<rect x="770" y="604" width="188" height="56" rx="14" fill="#fff" stroke="#D8D8D0" stroke-width="1.5"/>
<text x="864.0" y="626.0" text-anchor="middle" font-size="18" font-weight="bold" fill="#1d1d1f">Register</text>
<text x="864.0" y="647.0" text-anchor="middle" font-size="13" font-style="italic" fill="#6e6e73">/account/register</text>
<line x1="958" y1="548" x2="1010" y2="578" stroke="#6e6e73" stroke-width="2" marker-end="url(#arr)"/>
<line x1="958" y1="632" x2="1010" y2="612" stroke="#6e6e73" stroke-width="2" marker-end="url(#arr)"/>
<rect x="1250" y="560" width="200" height="70" rx="14" fill="#E3F3EC" stroke="#0a8754" stroke-width="1.5"/>
<text x="1350.0" y="589.0" text-anchor="middle" font-size="18" font-weight="bold" fill="#1d1d1f">Download library</text>
<text x="1350.0" y="610.0" text-anchor="middle" font-size="13" font-style="italic" fill="#6e6e73">past purchases</text>
<line x1="1198" y1="595" x2="1250" y2="595" stroke="#6e6e73" stroke-width="2" marker-end="url(#arr)"/>
<line x1="1315" y1="452" x2="1350" y2="560" stroke="#6e6e73" stroke-width="2" stroke-dasharray="5 4" marker-end="url(#arr)"/>
<text x="1300" y="520" text-anchor="middle" font-size="11" font-weight="normal" font-style="italic" fill="#6e6e73">logged-in re-download</text>
<text x="60" y="756" text-anchor="start" font-size="13" font-weight="bold" font-style="normal" fill="#6e6e73">PERSISTENT FOOTER</text>
<rect x="50" y="770" width="195" height="60" rx="14" fill="#ECECE6" stroke="#D8D8D0" stroke-width="1.5"/>
<text x="147.5" y="794.0" text-anchor="middle" font-size="18" font-weight="bold" fill="#1d1d1f">About</text>
<text x="147.5" y="815.0" text-anchor="middle" font-size="13" font-style="italic" fill="#6e6e73">/about</text>
<rect x="257" y="770" width="195" height="60" rx="14" fill="#ECECE6" stroke="#D8D8D0" stroke-width="1.5"/>
<text x="354.5" y="794.0" text-anchor="middle" font-size="18" font-weight="bold" fill="#1d1d1f">Help</text>
<text x="354.5" y="815.0" text-anchor="middle" font-size="13" font-style="italic" fill="#6e6e73">/help</text>
<rect x="464" y="770" width="195" height="60" rx="14" fill="#ECECE6" stroke="#D8D8D0" stroke-width="1.5"/>
<text x="561.5" y="794.0" text-anchor="middle" font-size="18" font-weight="bold" fill="#1d1d1f">Contact</text>
<text x="561.5" y="815.0" text-anchor="middle" font-size="13" font-style="italic" fill="#6e6e73">/contact</text>
<rect x="671" y="770" width="195" height="60" rx="14" fill="#ECECE6" stroke="#D8D8D0" stroke-width="1.5"/>
<text x="768.5" y="794.0" text-anchor="middle" font-size="18" font-weight="bold" fill="#1d1d1f">License</text>
<text x="768.5" y="815.0" text-anchor="middle" font-size="13" font-style="italic" fill="#6e6e73">/policies/license</text>
<rect x="878" y="770" width="195" height="60" rx="14" fill="#ECECE6" stroke="#D8D8D0" stroke-width="1.5"/>
<text x="975.5" y="794.0" text-anchor="middle" font-size="18" font-weight="bold" fill="#1d1d1f">Privacy</text>
<text x="975.5" y="815.0" text-anchor="middle" font-size="13" font-style="italic" fill="#6e6e73">/policies/privacy</text>
<rect x="1085" y="770" width="195" height="60" rx="14" fill="#ECECE6" stroke="#D8D8D0" stroke-width="1.5"/>
<text x="1182.5" y="794.0" text-anchor="middle" font-size="18" font-weight="bold" fill="#1d1d1f">Terms</text>
<text x="1182.5" y="815.0" text-anchor="middle" font-size="13" font-style="italic" fill="#6e6e73">/policies/terms</text>
<rect x="1292" y="770" width="195" height="60" rx="14" fill="#ECECE6" stroke="#D8D8D0" stroke-width="1.5"/>
<text x="1389.5" y="794.0" text-anchor="middle" font-size="18" font-weight="bold" fill="#1d1d1f">Refund</text>
<text x="1389.5" y="815.0" text-anchor="middle" font-size="13" font-style="italic" fill="#6e6e73">/policies/refund</text>
<rect x="60" y="892" width="22" height="16" rx="4" fill="#E6F0FB" stroke="#0071e3"/>
<text x="90" y="905" text-anchor="start" font-size="13" font-weight="normal" font-style="normal" fill="#6e6e73">purchase funnel</text>
<rect x="260" y="892" width="22" height="16" rx="4" fill="#E3F3EC" stroke="#0a8754"/>
<text x="290" y="905" text-anchor="start" font-size="13" font-weight="normal" font-style="normal" fill="#6e6e73">account / delivery</text>
<rect x="470" y="892" width="22" height="16" rx="4" fill="#ECECE6" stroke="#D8D8D0"/>
<text x="500" y="905" text-anchor="start" font-size="13" font-weight="normal" font-style="normal" fill="#6e6e73">discovery / info pages</text>
<text x="700" y="905" text-anchor="start" font-size="13" font-weight="normal" font-style="normal" fill="#6e6e73">→ solid = primary flow</text>
<text x="900" y="905" text-anchor="start" font-size="13" font-weight="normal" font-style="normal" fill="#6e6e73">⇢ dashed = optional</text>
</svg>